<mxfile host="app.diagrams.net" modified="2023-05-22T04:22:57.391Z" agent="Mozilla/5.0 (Windows NT 10.0; Win64; x64) AppleWebKit/537.36 (KHTML, like Gecko) Chrome/113.0.0.0 Safari/537.36" etag="EOQigxc52y-djaT3TeBi" version="21.3.2" type="device">
  <diagram id="R2lEEEUBdFMjLlhIrx00" name="Page-1">
    <mxGraphModel dx="2071" dy="1811" grid="1" gridSize="10" guides="1" tooltips="1" connect="1" arrows="1" fold="1" page="1" pageScale="1" pageWidth="850" pageHeight="1100" math="0" shadow="0" extFonts="Permanent Marker^https://fonts.googleapis.com/css?family=Permanent+Marker">
      <root>
        <mxCell id="0" />
        <mxCell id="1" parent="0" />
        <mxCell id="FEdX-ZEhfG69FVSLUzDd-1" value="Unregistered_User" style="whiteSpace=wrap;html=1;align=center;aspect=fixed;fontSize=14;" parent="1" vertex="1">
          <mxGeometry x="99" y="-74" width="120" height="48" as="geometry" />
        </mxCell>
        <mxCell id="FEdX-ZEhfG69FVSLUzDd-2" value="Registered_User" style="whiteSpace=wrap;html=1;align=center;aspect=fixed;fontSize=14;" parent="1" vertex="1">
          <mxGeometry x="720" y="-18" width="120" height="48" as="geometry" />
        </mxCell>
        <mxCell id="FEdX-ZEhfG69FVSLUzDd-3" value="Lecturer" style="whiteSpace=wrap;html=1;align=center;aspect=fixed;fontSize=14;" parent="1" vertex="1">
          <mxGeometry x="1030" y="330" width="120" height="48" as="geometry" />
        </mxCell>
        <mxCell id="FEdX-ZEhfG69FVSLUzDd-4" value="Trainee_Teacher" style="whiteSpace=wrap;html=1;align=center;aspect=fixed;fontSize=14;" parent="1" vertex="1">
          <mxGeometry x="425" y="310" width="120" height="48" as="geometry" />
        </mxCell>
        <mxCell id="FEdX-ZEhfG69FVSLUzDd-6" value="Course" style="whiteSpace=wrap;html=1;align=center;aspect=fixed;fontSize=14;" parent="1" vertex="1">
          <mxGeometry x="110" y="300" width="120" height="48" as="geometry" />
        </mxCell>
        <mxCell id="FEdX-ZEhfG69FVSLUzDd-7" value="Sign up" style="shape=rhombus;perimeter=rhombusPerimeter;whiteSpace=wrap;html=1;align=center;fontSize=14;" parent="1" vertex="1">
          <mxGeometry x="410" y="-100" width="120" height="60" as="geometry" />
        </mxCell>
        <mxCell id="FEdX-ZEhfG69FVSLUzDd-14" value="" style="endArrow=none;html=1;rounded=0;entryX=0;entryY=0.5;entryDx=0;entryDy=0;exitX=1;exitY=0.5;exitDx=0;exitDy=0;fontSize=14;" parent="1" source="FEdX-ZEhfG69FVSLUzDd-1" target="FEdX-ZEhfG69FVSLUzDd-7" edge="1">
          <mxGeometry relative="1" as="geometry">
            <mxPoint x="220" y="1" as="sourcePoint" />
            <mxPoint x="370" y="31" as="targetPoint" />
          </mxGeometry>
        </mxCell>
        <mxCell id="H47zb7GgkbiysLEzrbTU-55" value="N" style="edgeLabel;html=1;align=center;verticalAlign=middle;resizable=0;points=[];" parent="FEdX-ZEhfG69FVSLUzDd-14" vertex="1" connectable="0">
          <mxGeometry x="-0.8684" y="-1" relative="1" as="geometry">
            <mxPoint x="-2" y="-10" as="offset" />
          </mxGeometry>
        </mxCell>
        <mxCell id="FEdX-ZEhfG69FVSLUzDd-19" value="ISA" style="triangle;whiteSpace=wrap;html=1;rotation=-90;verticalAlign=middle;align=center;fontSize=14;" parent="1" vertex="1">
          <mxGeometry x="800" y="90" width="60" height="80" as="geometry" />
        </mxCell>
        <mxCell id="FEdX-ZEhfG69FVSLUzDd-20" value="" style="endArrow=none;html=1;rounded=0;exitX=1;exitY=0.5;exitDx=0;exitDy=0;entryX=0.5;entryY=1;entryDx=0;entryDy=0;fontSize=14;" parent="1" source="FEdX-ZEhfG69FVSLUzDd-19" target="FEdX-ZEhfG69FVSLUzDd-2" edge="1">
          <mxGeometry relative="1" as="geometry">
            <mxPoint x="210" y="250" as="sourcePoint" />
            <mxPoint x="640" y="240" as="targetPoint" />
          </mxGeometry>
        </mxCell>
        <mxCell id="FEdX-ZEhfG69FVSLUzDd-21" value="" style="endArrow=none;html=1;rounded=0;entryX=0.75;entryY=0;entryDx=0;entryDy=0;exitX=0.026;exitY=0.022;exitDx=0;exitDy=0;exitPerimeter=0;fontSize=14;" parent="1" source="FEdX-ZEhfG69FVSLUzDd-19" target="FEdX-ZEhfG69FVSLUzDd-4" edge="1">
          <mxGeometry relative="1" as="geometry">
            <mxPoint x="660" y="200" as="sourcePoint" />
            <mxPoint x="370" y="321" as="targetPoint" />
          </mxGeometry>
        </mxCell>
        <mxCell id="FEdX-ZEhfG69FVSLUzDd-22" value="" style="endArrow=none;html=1;rounded=0;entryX=0;entryY=0;entryDx=0;entryDy=0;exitX=0.009;exitY=0.976;exitDx=0;exitDy=0;exitPerimeter=0;fontSize=14;" parent="1" source="FEdX-ZEhfG69FVSLUzDd-19" target="FEdX-ZEhfG69FVSLUzDd-3" edge="1">
          <mxGeometry relative="1" as="geometry">
            <mxPoint x="790" y="170" as="sourcePoint" />
            <mxPoint x="590" y="431" as="targetPoint" />
          </mxGeometry>
        </mxCell>
        <mxCell id="FEdX-ZEhfG69FVSLUzDd-27" value="Enroll" style="shape=rhombus;perimeter=rhombusPerimeter;whiteSpace=wrap;html=1;align=center;fontSize=14;" parent="1" vertex="1">
          <mxGeometry x="260" y="300" width="120" height="60" as="geometry" />
        </mxCell>
        <mxCell id="FEdX-ZEhfG69FVSLUzDd-28" value="" style="endArrow=none;html=1;rounded=0;entryX=0;entryY=0.5;entryDx=0;entryDy=0;exitX=1;exitY=0.5;exitDx=0;exitDy=0;fontSize=14;" parent="1" source="FEdX-ZEhfG69FVSLUzDd-27" target="FEdX-ZEhfG69FVSLUzDd-4" edge="1">
          <mxGeometry relative="1" as="geometry">
            <mxPoint x="450" y="511" as="sourcePoint" />
            <mxPoint x="370" y="351" as="targetPoint" />
          </mxGeometry>
        </mxCell>
        <mxCell id="FEdX-ZEhfG69FVSLUzDd-29" value="" style="endArrow=none;html=1;rounded=0;entryX=0;entryY=0.5;entryDx=0;entryDy=0;fontSize=14;" parent="1" source="FEdX-ZEhfG69FVSLUzDd-6" target="FEdX-ZEhfG69FVSLUzDd-27" edge="1">
          <mxGeometry relative="1" as="geometry">
            <mxPoint x="250" y="300" as="sourcePoint" />
            <mxPoint x="370" y="331" as="targetPoint" />
          </mxGeometry>
        </mxCell>
        <mxCell id="p-VBvKtd0xTwOiZM_nHM-4" value="Module" style="whiteSpace=wrap;html=1;align=center;aspect=fixed;fontSize=14;" parent="1" vertex="1">
          <mxGeometry x="120" y="796" width="120" height="48" as="geometry" />
        </mxCell>
        <mxCell id="p-VBvKtd0xTwOiZM_nHM-7" value="Has" style="shape=rhombus;perimeter=rhombusPerimeter;whiteSpace=wrap;html=1;align=center;fontSize=14;" parent="1" vertex="1">
          <mxGeometry x="110" y="512" width="120" height="60" as="geometry" />
        </mxCell>
        <mxCell id="p-VBvKtd0xTwOiZM_nHM-8" value="" style="endArrow=none;html=1;rounded=0;entryX=0.5;entryY=0;entryDx=0;entryDy=0;exitX=0.25;exitY=1;exitDx=0;exitDy=0;fontSize=14;" parent="1" source="FEdX-ZEhfG69FVSLUzDd-6" target="p-VBvKtd0xTwOiZM_nHM-7" edge="1">
          <mxGeometry relative="1" as="geometry">
            <mxPoint x="450" y="391" as="sourcePoint" />
            <mxPoint x="370" y="331" as="targetPoint" />
          </mxGeometry>
        </mxCell>
        <mxCell id="H47zb7GgkbiysLEzrbTU-78" value="N" style="edgeLabel;html=1;align=center;verticalAlign=middle;resizable=0;points=[];" parent="p-VBvKtd0xTwOiZM_nHM-8" vertex="1" connectable="0">
          <mxGeometry x="-0.8501" y="6" relative="1" as="geometry">
            <mxPoint x="-1" as="offset" />
          </mxGeometry>
        </mxCell>
        <mxCell id="p-VBvKtd0xTwOiZM_nHM-10" value="" style="endArrow=none;html=1;rounded=0;entryX=0.75;entryY=0;entryDx=0;entryDy=0;exitX=0.5;exitY=1;exitDx=0;exitDy=0;fontSize=14;" parent="1" source="p-VBvKtd0xTwOiZM_nHM-7" target="p-VBvKtd0xTwOiZM_nHM-4" edge="1">
          <mxGeometry relative="1" as="geometry">
            <mxPoint x="-10" y="552" as="sourcePoint" />
            <mxPoint x="220" y="442" as="targetPoint" />
          </mxGeometry>
        </mxCell>
        <mxCell id="H47zb7GgkbiysLEzrbTU-77" value="1" style="edgeLabel;html=1;align=center;verticalAlign=middle;resizable=0;points=[];" parent="p-VBvKtd0xTwOiZM_nHM-10" vertex="1" connectable="0">
          <mxGeometry x="0.8005" y="4" relative="1" as="geometry">
            <mxPoint as="offset" />
          </mxGeometry>
        </mxCell>
        <mxCell id="p-VBvKtd0xTwOiZM_nHM-11" value="Exam" style="whiteSpace=wrap;html=1;align=center;aspect=fixed;fontSize=14;" parent="1" vertex="1">
          <mxGeometry x="170" y="132" width="120" height="48" as="geometry" />
        </mxCell>
        <mxCell id="p-VBvKtd0xTwOiZM_nHM-12" value="Has" style="shape=rhombus;perimeter=rhombusPerimeter;whiteSpace=wrap;html=1;align=center;fontSize=14;" parent="1" vertex="1">
          <mxGeometry x="-37" y="318" width="120" height="60" as="geometry" />
        </mxCell>
        <mxCell id="p-VBvKtd0xTwOiZM_nHM-13" value="Attempt" style="shape=rhombus;perimeter=rhombusPerimeter;whiteSpace=wrap;html=1;align=center;fontSize=14;" parent="1" vertex="1">
          <mxGeometry x="330" y="180" width="120" height="60" as="geometry" />
        </mxCell>
        <mxCell id="p-VBvKtd0xTwOiZM_nHM-14" value="" style="endArrow=none;html=1;rounded=0;entryX=1;entryY=0.5;entryDx=0;entryDy=0;exitX=0.25;exitY=0;exitDx=0;exitDy=0;fontSize=14;" parent="1" source="FEdX-ZEhfG69FVSLUzDd-4" target="p-VBvKtd0xTwOiZM_nHM-13" edge="1">
          <mxGeometry relative="1" as="geometry">
            <mxPoint x="140" y="360" as="sourcePoint" />
            <mxPoint x="370" y="250" as="targetPoint" />
          </mxGeometry>
        </mxCell>
        <mxCell id="H47zb7GgkbiysLEzrbTU-61" value="M" style="edgeLabel;html=1;align=center;verticalAlign=middle;resizable=0;points=[];" parent="p-VBvKtd0xTwOiZM_nHM-14" vertex="1" connectable="0">
          <mxGeometry x="-0.5842" y="-4" relative="1" as="geometry">
            <mxPoint as="offset" />
          </mxGeometry>
        </mxCell>
        <mxCell id="p-VBvKtd0xTwOiZM_nHM-15" value="" style="endArrow=none;html=1;rounded=0;exitX=0.411;exitY=0.988;exitDx=0;exitDy=0;exitPerimeter=0;entryX=0.5;entryY=0;entryDx=0;entryDy=0;fontSize=14;" parent="1" source="p-VBvKtd0xTwOiZM_nHM-11" target="p-VBvKtd0xTwOiZM_nHM-12" edge="1">
          <mxGeometry relative="1" as="geometry">
            <mxPoint x="80" y="274" as="sourcePoint" />
            <mxPoint x="140" y="179" as="targetPoint" />
          </mxGeometry>
        </mxCell>
        <mxCell id="H47zb7GgkbiysLEzrbTU-56" value="N" style="edgeLabel;html=1;align=center;verticalAlign=middle;resizable=0;points=[];" parent="p-VBvKtd0xTwOiZM_nHM-15" vertex="1" connectable="0">
          <mxGeometry x="-0.7067" y="-4" relative="1" as="geometry">
            <mxPoint x="-4" y="-3" as="offset" />
          </mxGeometry>
        </mxCell>
        <mxCell id="p-VBvKtd0xTwOiZM_nHM-16" value="" style="endArrow=none;html=1;rounded=0;entryX=0;entryY=0.5;entryDx=0;entryDy=0;exitX=1;exitY=1;exitDx=0;exitDy=0;fontSize=14;" parent="1" source="p-VBvKtd0xTwOiZM_nHM-11" target="p-VBvKtd0xTwOiZM_nHM-13" edge="1">
          <mxGeometry relative="1" as="geometry">
            <mxPoint x="80" y="274" as="sourcePoint" />
            <mxPoint x="310" y="164" as="targetPoint" />
          </mxGeometry>
        </mxCell>
        <mxCell id="p-VBvKtd0xTwOiZM_nHM-17" value="" style="endArrow=none;html=1;rounded=0;exitX=0.5;exitY=0;exitDx=0;exitDy=0;entryX=0.5;entryY=1;entryDx=0;entryDy=0;fontSize=14;" parent="1" source="p-VBvKtd0xTwOiZM_nHM-4" target="p-VBvKtd0xTwOiZM_nHM-12" edge="1">
          <mxGeometry relative="1" as="geometry">
            <mxPoint x="-10" y="471" as="sourcePoint" />
            <mxPoint x="60" y="290" as="targetPoint" />
          </mxGeometry>
        </mxCell>
        <mxCell id="H47zb7GgkbiysLEzrbTU-57" value="1" style="edgeLabel;html=1;align=center;verticalAlign=middle;resizable=0;points=[];" parent="p-VBvKtd0xTwOiZM_nHM-17" vertex="1" connectable="0">
          <mxGeometry x="-0.9238" relative="1" as="geometry">
            <mxPoint x="-7" as="offset" />
          </mxGeometry>
        </mxCell>
        <mxCell id="p-VBvKtd0xTwOiZM_nHM-18" value="Lecture" style="whiteSpace=wrap;html=1;align=center;aspect=fixed;fontSize=14;" parent="1" vertex="1">
          <mxGeometry x="410" y="671" width="120" height="48" as="geometry" />
        </mxCell>
        <mxCell id="p-VBvKtd0xTwOiZM_nHM-19" value="Has" style="shape=rhombus;perimeter=rhombusPerimeter;whiteSpace=wrap;html=1;align=center;fontSize=14;" parent="1" vertex="1">
          <mxGeometry x="305" y="736" width="120" height="60" as="geometry" />
        </mxCell>
        <mxCell id="p-VBvKtd0xTwOiZM_nHM-20" value="" style="endArrow=none;html=1;rounded=0;entryX=1;entryY=0;entryDx=0;entryDy=0;exitX=0;exitY=0.5;exitDx=0;exitDy=0;fontSize=14;" parent="1" source="p-VBvKtd0xTwOiZM_nHM-19" target="p-VBvKtd0xTwOiZM_nHM-4" edge="1">
          <mxGeometry relative="1" as="geometry">
            <mxPoint x="149" y="630" as="sourcePoint" />
            <mxPoint x="130" y="580" as="targetPoint" />
          </mxGeometry>
        </mxCell>
        <mxCell id="H47zb7GgkbiysLEzrbTU-75" value="1" style="edgeLabel;html=1;align=center;verticalAlign=middle;resizable=0;points=[];" parent="p-VBvKtd0xTwOiZM_nHM-20" vertex="1" connectable="0">
          <mxGeometry x="0.6871" y="-4" relative="1" as="geometry">
            <mxPoint as="offset" />
          </mxGeometry>
        </mxCell>
        <mxCell id="p-VBvKtd0xTwOiZM_nHM-21" value="" style="endArrow=none;html=1;rounded=0;entryX=0.5;entryY=1;entryDx=0;entryDy=0;exitX=1;exitY=0.5;exitDx=0;exitDy=0;fontSize=14;" parent="1" source="p-VBvKtd0xTwOiZM_nHM-19" target="p-VBvKtd0xTwOiZM_nHM-18" edge="1">
          <mxGeometry relative="1" as="geometry">
            <mxPoint x="330" y="620" as="sourcePoint" />
            <mxPoint x="370" y="250" as="targetPoint" />
          </mxGeometry>
        </mxCell>
        <mxCell id="H47zb7GgkbiysLEzrbTU-76" value="N" style="edgeLabel;html=1;align=center;verticalAlign=middle;resizable=0;points=[];" parent="p-VBvKtd0xTwOiZM_nHM-21" vertex="1" connectable="0">
          <mxGeometry x="0.4354" y="7" relative="1" as="geometry">
            <mxPoint as="offset" />
          </mxGeometry>
        </mxCell>
        <mxCell id="p-VBvKtd0xTwOiZM_nHM-22" value="Atten" style="shape=rhombus;perimeter=rhombusPerimeter;whiteSpace=wrap;html=1;align=center;fontSize=14;" parent="1" vertex="1">
          <mxGeometry x="425" y="431" width="120" height="60" as="geometry" />
        </mxCell>
        <mxCell id="p-VBvKtd0xTwOiZM_nHM-23" value="" style="endArrow=none;html=1;rounded=0;entryX=0.75;entryY=0;entryDx=0;entryDy=0;exitX=0.5;exitY=1;exitDx=0;exitDy=0;fontSize=14;" parent="1" source="p-VBvKtd0xTwOiZM_nHM-22" target="p-VBvKtd0xTwOiZM_nHM-18" edge="1">
          <mxGeometry relative="1" as="geometry">
            <mxPoint x="416.5" y="486" as="sourcePoint" />
            <mxPoint x="301.5" y="307" as="targetPoint" />
          </mxGeometry>
        </mxCell>
        <mxCell id="H47zb7GgkbiysLEzrbTU-65" value="M" style="edgeLabel;html=1;align=center;verticalAlign=middle;resizable=0;points=[];" parent="p-VBvKtd0xTwOiZM_nHM-23" vertex="1" connectable="0">
          <mxGeometry x="0.8422" y="3" relative="1" as="geometry">
            <mxPoint x="3" as="offset" />
          </mxGeometry>
        </mxCell>
        <mxCell id="p-VBvKtd0xTwOiZM_nHM-24" value="" style="endArrow=none;html=1;rounded=0;entryX=0.25;entryY=1;entryDx=0;entryDy=0;exitX=0.5;exitY=0;exitDx=0;exitDy=0;fontSize=14;" parent="1" source="p-VBvKtd0xTwOiZM_nHM-22" target="FEdX-ZEhfG69FVSLUzDd-4" edge="1">
          <mxGeometry relative="1" as="geometry">
            <mxPoint x="450" y="462" as="sourcePoint" />
            <mxPoint x="370" y="402" as="targetPoint" />
          </mxGeometry>
        </mxCell>
        <mxCell id="H47zb7GgkbiysLEzrbTU-64" value="N" style="edgeLabel;html=1;align=center;verticalAlign=middle;resizable=0;points=[];" parent="p-VBvKtd0xTwOiZM_nHM-24" vertex="1" connectable="0">
          <mxGeometry x="0.5569" y="-1" relative="1" as="geometry">
            <mxPoint x="3" as="offset" />
          </mxGeometry>
        </mxCell>
        <mxCell id="5YQ8C8MWGox1qdXE-2Jn-7" value="Payment" style="whiteSpace=wrap;html=1;align=center;aspect=fixed;fontSize=14;" parent="1" vertex="1">
          <mxGeometry x="749" y="594" width="120" height="48" as="geometry" />
        </mxCell>
        <mxCell id="5YQ8C8MWGox1qdXE-2Jn-8" value="Pay" style="shape=rhombus;perimeter=rhombusPerimeter;whiteSpace=wrap;html=1;align=center;fontSize=14;" parent="1" vertex="1">
          <mxGeometry x="540" y="530" width="120" height="60" as="geometry" />
        </mxCell>
        <mxCell id="5YQ8C8MWGox1qdXE-2Jn-9" value="" style="endArrow=none;html=1;rounded=0;entryX=0.75;entryY=1;entryDx=0;entryDy=0;exitX=0.5;exitY=0;exitDx=0;exitDy=0;fontSize=14;" parent="1" source="5YQ8C8MWGox1qdXE-2Jn-8" target="FEdX-ZEhfG69FVSLUzDd-4" edge="1">
          <mxGeometry relative="1" as="geometry">
            <mxPoint x="609" y="483.99999999999955" as="sourcePoint" />
            <mxPoint x="309" y="283" as="targetPoint" />
          </mxGeometry>
        </mxCell>
        <mxCell id="H47zb7GgkbiysLEzrbTU-66" value="1" style="edgeLabel;html=1;align=center;verticalAlign=middle;resizable=0;points=[];" parent="5YQ8C8MWGox1qdXE-2Jn-9" vertex="1" connectable="0">
          <mxGeometry x="0.8141" y="-5" relative="1" as="geometry">
            <mxPoint as="offset" />
          </mxGeometry>
        </mxCell>
        <mxCell id="5YQ8C8MWGox1qdXE-2Jn-10" value="" style="endArrow=none;html=1;rounded=0;entryX=0;entryY=0.25;entryDx=0;entryDy=0;exitX=0.5;exitY=1;exitDx=0;exitDy=0;fontSize=14;" parent="1" source="5YQ8C8MWGox1qdXE-2Jn-8" target="5YQ8C8MWGox1qdXE-2Jn-7" edge="1">
          <mxGeometry relative="1" as="geometry">
            <mxPoint x="140" y="360" as="sourcePoint" />
            <mxPoint x="370" y="250" as="targetPoint" />
          </mxGeometry>
        </mxCell>
        <mxCell id="H47zb7GgkbiysLEzrbTU-67" value="M" style="edgeLabel;html=1;align=center;verticalAlign=middle;resizable=0;points=[];" parent="5YQ8C8MWGox1qdXE-2Jn-10" vertex="1" connectable="0">
          <mxGeometry x="0.7811" y="4" relative="1" as="geometry">
            <mxPoint x="3" y="-3" as="offset" />
          </mxGeometry>
        </mxCell>
        <mxCell id="5YQ8C8MWGox1qdXE-2Jn-11" value="Get" style="shape=rhombus;perimeter=rhombusPerimeter;whiteSpace=wrap;html=1;align=center;fontSize=14;" parent="1" vertex="1">
          <mxGeometry x="850" y="506" width="120" height="60" as="geometry" />
        </mxCell>
        <mxCell id="5YQ8C8MWGox1qdXE-2Jn-12" value="" style="endArrow=none;html=1;rounded=0;entryX=1;entryY=0.25;entryDx=0;entryDy=0;exitX=0.5;exitY=1;exitDx=0;exitDy=0;fontSize=14;" parent="1" source="5YQ8C8MWGox1qdXE-2Jn-11" target="5YQ8C8MWGox1qdXE-2Jn-7" edge="1">
          <mxGeometry relative="1" as="geometry">
            <mxPoint x="1000" y="640" as="sourcePoint" />
            <mxPoint x="880" y="660" as="targetPoint" />
          </mxGeometry>
        </mxCell>
        <mxCell id="H47zb7GgkbiysLEzrbTU-68" value="M" style="edgeLabel;html=1;align=center;verticalAlign=middle;resizable=0;points=[];" parent="5YQ8C8MWGox1qdXE-2Jn-12" vertex="1" connectable="0">
          <mxGeometry x="0.5111" y="-1" relative="1" as="geometry">
            <mxPoint x="-2" y="-4" as="offset" />
          </mxGeometry>
        </mxCell>
        <mxCell id="5YQ8C8MWGox1qdXE-2Jn-13" value="" style="endArrow=none;html=1;rounded=0;entryX=0;entryY=0.5;entryDx=0;entryDy=0;exitX=0.5;exitY=0;exitDx=0;exitDy=0;fontSize=14;" parent="1" source="5YQ8C8MWGox1qdXE-2Jn-11" target="FEdX-ZEhfG69FVSLUzDd-3" edge="1">
          <mxGeometry relative="1" as="geometry">
            <mxPoint x="1050" y="570" as="sourcePoint" />
            <mxPoint x="370" y="402" as="targetPoint" />
          </mxGeometry>
        </mxCell>
        <mxCell id="H47zb7GgkbiysLEzrbTU-69" value="1" style="edgeLabel;html=1;align=center;verticalAlign=middle;resizable=0;points=[];" parent="5YQ8C8MWGox1qdXE-2Jn-13" vertex="1" connectable="0">
          <mxGeometry x="0.7907" y="4" relative="1" as="geometry">
            <mxPoint x="-3" as="offset" />
          </mxGeometry>
        </mxCell>
        <mxCell id="5YQ8C8MWGox1qdXE-2Jn-14" value="Certificate" style="whiteSpace=wrap;html=1;align=center;aspect=fixed;fontSize=14;" parent="1" vertex="1">
          <mxGeometry x="470" y="80" width="120" height="48" as="geometry" />
        </mxCell>
        <mxCell id="5YQ8C8MWGox1qdXE-2Jn-15" value="Receive" style="shape=rhombus;perimeter=rhombusPerimeter;whiteSpace=wrap;html=1;align=center;fontSize=14;" parent="1" vertex="1">
          <mxGeometry x="460" y="170" width="120" height="60" as="geometry" />
        </mxCell>
        <mxCell id="5YQ8C8MWGox1qdXE-2Jn-16" value="" style="endArrow=none;html=1;rounded=0;entryX=0.5;entryY=1;entryDx=0;entryDy=0;exitX=0.5;exitY=0;exitDx=0;exitDy=0;fontSize=14;" parent="1" source="FEdX-ZEhfG69FVSLUzDd-4" target="5YQ8C8MWGox1qdXE-2Jn-15" edge="1">
          <mxGeometry relative="1" as="geometry">
            <mxPoint x="490" y="270" as="sourcePoint" />
            <mxPoint x="540" y="300" as="targetPoint" />
          </mxGeometry>
        </mxCell>
        <mxCell id="H47zb7GgkbiysLEzrbTU-62" value="1" style="edgeLabel;html=1;align=center;verticalAlign=middle;resizable=0;points=[];" parent="5YQ8C8MWGox1qdXE-2Jn-16" vertex="1" connectable="0">
          <mxGeometry x="-0.5444" y="4" relative="1" as="geometry">
            <mxPoint as="offset" />
          </mxGeometry>
        </mxCell>
        <mxCell id="5YQ8C8MWGox1qdXE-2Jn-17" value="" style="endArrow=none;html=1;rounded=0;entryX=0.5;entryY=1;entryDx=0;entryDy=0;exitX=0.5;exitY=0;exitDx=0;exitDy=0;fontSize=14;" parent="1" source="5YQ8C8MWGox1qdXE-2Jn-15" target="5YQ8C8MWGox1qdXE-2Jn-14" edge="1">
          <mxGeometry relative="1" as="geometry">
            <mxPoint x="80" y="274" as="sourcePoint" />
            <mxPoint x="310" y="164" as="targetPoint" />
          </mxGeometry>
        </mxCell>
        <mxCell id="5YQ8C8MWGox1qdXE-2Jn-19" value="Name" style="ellipse;whiteSpace=wrap;html=1;align=center;fontSize=14;" parent="1" vertex="1">
          <mxGeometry x="670" y="330" width="100" height="40" as="geometry" />
        </mxCell>
        <mxCell id="5YQ8C8MWGox1qdXE-2Jn-20" value="Username" style="ellipse;whiteSpace=wrap;html=1;align=center;fontSize=14;" parent="1" vertex="1">
          <mxGeometry x="760" y="391" width="100" height="40" as="geometry" />
        </mxCell>
        <mxCell id="5YQ8C8MWGox1qdXE-2Jn-21" value="Password" style="ellipse;whiteSpace=wrap;html=1;align=center;fontSize=14;" parent="1" vertex="1">
          <mxGeometry x="700" y="280" width="100" height="40" as="geometry" />
        </mxCell>
        <mxCell id="5YQ8C8MWGox1qdXE-2Jn-22" value="First_Name" style="ellipse;whiteSpace=wrap;html=1;align=center;fontSize=14;" parent="1" vertex="1">
          <mxGeometry x="850" y="280" width="100" height="40" as="geometry" />
        </mxCell>
        <mxCell id="5YQ8C8MWGox1qdXE-2Jn-23" value="Last_name" style="ellipse;whiteSpace=wrap;html=1;align=center;fontSize=14;" parent="1" vertex="1">
          <mxGeometry x="860" y="343" width="100" height="40" as="geometry" />
        </mxCell>
        <mxCell id="5YQ8C8MWGox1qdXE-2Jn-24" value="NIC" style="ellipse;whiteSpace=wrap;html=1;align=center;fontSize=14;" parent="1" vertex="1">
          <mxGeometry x="689" y="470" width="100" height="40" as="geometry" />
        </mxCell>
        <mxCell id="5YQ8C8MWGox1qdXE-2Jn-25" value="E-mail" style="ellipse;whiteSpace=wrap;html=1;align=center;fontSize=14;" parent="1" vertex="1">
          <mxGeometry x="680" y="532" width="100" height="40" as="geometry" />
        </mxCell>
        <mxCell id="5YQ8C8MWGox1qdXE-2Jn-26" value="" style="endArrow=none;html=1;rounded=0;entryX=1;entryY=0;entryDx=0;entryDy=0;exitX=0;exitY=0.5;exitDx=0;exitDy=0;fontSize=14;" parent="1" source="5YQ8C8MWGox1qdXE-2Jn-27" target="FEdX-ZEhfG69FVSLUzDd-4" edge="1">
          <mxGeometry relative="1" as="geometry">
            <mxPoint x="608.3200000000002" y="343.22" as="sourcePoint" />
            <mxPoint x="370" y="321" as="targetPoint" />
          </mxGeometry>
        </mxCell>
        <mxCell id="5YQ8C8MWGox1qdXE-2Jn-27" value="&lt;span style=&quot;font-size: 14px;&quot;&gt;T_REG_No&lt;/span&gt;" style="ellipse;whiteSpace=wrap;html=1;align=center;fontSize=14;fontStyle=4" parent="1" vertex="1">
          <mxGeometry x="680" y="230" width="100" height="40" as="geometry" />
        </mxCell>
        <mxCell id="5YQ8C8MWGox1qdXE-2Jn-28" value="" style="endArrow=none;html=1;rounded=0;entryX=1;entryY=0;entryDx=0;entryDy=0;exitX=0;exitY=0.5;exitDx=0;exitDy=0;fontSize=14;" parent="1" source="5YQ8C8MWGox1qdXE-2Jn-21" target="FEdX-ZEhfG69FVSLUzDd-4" edge="1">
          <mxGeometry relative="1" as="geometry">
            <mxPoint x="608.3200000000002" y="343.22" as="sourcePoint" />
            <mxPoint x="370" y="321" as="targetPoint" />
          </mxGeometry>
        </mxCell>
        <mxCell id="5YQ8C8MWGox1qdXE-2Jn-29" value="" style="endArrow=none;html=1;rounded=0;entryX=1;entryY=0;entryDx=0;entryDy=0;exitX=0;exitY=0.5;exitDx=0;exitDy=0;fontSize=14;" parent="1" source="5YQ8C8MWGox1qdXE-2Jn-19" target="FEdX-ZEhfG69FVSLUzDd-4" edge="1">
          <mxGeometry relative="1" as="geometry">
            <mxPoint x="608.3200000000002" y="343.22" as="sourcePoint" />
            <mxPoint x="370" y="321" as="targetPoint" />
          </mxGeometry>
        </mxCell>
        <mxCell id="5YQ8C8MWGox1qdXE-2Jn-30" value="" style="endArrow=none;html=1;rounded=0;entryX=1;entryY=0;entryDx=0;entryDy=0;exitX=0;exitY=0.5;exitDx=0;exitDy=0;fontSize=14;" parent="1" source="5YQ8C8MWGox1qdXE-2Jn-35" target="FEdX-ZEhfG69FVSLUzDd-4" edge="1">
          <mxGeometry relative="1" as="geometry">
            <mxPoint x="608.3200000000002" y="343.22" as="sourcePoint" />
            <mxPoint x="370" y="321" as="targetPoint" />
          </mxGeometry>
        </mxCell>
        <mxCell id="5YQ8C8MWGox1qdXE-2Jn-31" value="" style="endArrow=none;html=1;rounded=0;entryX=1;entryY=0;entryDx=0;entryDy=0;exitX=0;exitY=0.5;exitDx=0;exitDy=0;fontSize=14;" parent="1" source="5YQ8C8MWGox1qdXE-2Jn-24" target="FEdX-ZEhfG69FVSLUzDd-4" edge="1">
          <mxGeometry relative="1" as="geometry">
            <mxPoint x="608.3200000000002" y="343.22" as="sourcePoint" />
            <mxPoint x="370" y="321" as="targetPoint" />
          </mxGeometry>
        </mxCell>
        <mxCell id="5YQ8C8MWGox1qdXE-2Jn-32" value="" style="endArrow=none;html=1;rounded=0;entryX=1;entryY=0;entryDx=0;entryDy=0;exitX=0;exitY=0.5;exitDx=0;exitDy=0;fontSize=14;" parent="1" source="5YQ8C8MWGox1qdXE-2Jn-25" target="FEdX-ZEhfG69FVSLUzDd-4" edge="1">
          <mxGeometry relative="1" as="geometry">
            <mxPoint x="608.3200000000002" y="343.22" as="sourcePoint" />
            <mxPoint x="370" y="321" as="targetPoint" />
          </mxGeometry>
        </mxCell>
        <mxCell id="5YQ8C8MWGox1qdXE-2Jn-33" value="" style="endArrow=none;html=1;rounded=0;entryX=1;entryY=0.5;entryDx=0;entryDy=0;exitX=0;exitY=0.5;exitDx=0;exitDy=0;fontSize=14;" parent="1" source="5YQ8C8MWGox1qdXE-2Jn-22" target="5YQ8C8MWGox1qdXE-2Jn-19" edge="1">
          <mxGeometry relative="1" as="geometry">
            <mxPoint x="608.3200000000002" y="343.22" as="sourcePoint" />
            <mxPoint x="370" y="321" as="targetPoint" />
          </mxGeometry>
        </mxCell>
        <mxCell id="5YQ8C8MWGox1qdXE-2Jn-34" value="" style="endArrow=none;html=1;rounded=0;entryX=1;entryY=0.5;entryDx=0;entryDy=0;exitX=0;exitY=0.5;exitDx=0;exitDy=0;fontSize=14;" parent="1" source="5YQ8C8MWGox1qdXE-2Jn-23" target="5YQ8C8MWGox1qdXE-2Jn-19" edge="1">
          <mxGeometry relative="1" as="geometry">
            <mxPoint x="608.3200000000002" y="343.22" as="sourcePoint" />
            <mxPoint x="370" y="321" as="targetPoint" />
          </mxGeometry>
        </mxCell>
        <mxCell id="5YQ8C8MWGox1qdXE-2Jn-35" value="Mobile_No" style="ellipse;whiteSpace=wrap;html=1;align=center;fontSize=14;" parent="1" vertex="1">
          <mxGeometry x="800" y="440" width="100" height="40" as="geometry" />
        </mxCell>
        <mxCell id="5YQ8C8MWGox1qdXE-2Jn-36" value="Name" style="ellipse;whiteSpace=wrap;html=1;align=center;fontSize=14;" parent="1" vertex="1">
          <mxGeometry x="1170" y="281" width="100" height="40" as="geometry" />
        </mxCell>
        <mxCell id="5YQ8C8MWGox1qdXE-2Jn-37" value="First_Name" style="ellipse;whiteSpace=wrap;html=1;align=center;fontSize=14;" parent="1" vertex="1">
          <mxGeometry x="1130" y="200" width="100" height="40" as="geometry" />
        </mxCell>
        <mxCell id="5YQ8C8MWGox1qdXE-2Jn-39" value="Last_name" style="ellipse;whiteSpace=wrap;html=1;align=center;fontSize=14;" parent="1" vertex="1">
          <mxGeometry x="1275" y="210" width="100" height="40" as="geometry" />
        </mxCell>
        <mxCell id="5YQ8C8MWGox1qdXE-2Jn-40" value="" style="endArrow=none;html=1;rounded=0;entryX=0.5;entryY=0;entryDx=0;entryDy=0;exitX=0.5;exitY=1;exitDx=0;exitDy=0;fontSize=14;" parent="1" source="5YQ8C8MWGox1qdXE-2Jn-37" target="5YQ8C8MWGox1qdXE-2Jn-36" edge="1">
          <mxGeometry relative="1" as="geometry">
            <mxPoint x="528.3200000000002" y="394.22" as="sourcePoint" />
            <mxPoint x="290" y="372" as="targetPoint" />
          </mxGeometry>
        </mxCell>
        <mxCell id="5YQ8C8MWGox1qdXE-2Jn-41" value="" style="endArrow=none;html=1;rounded=0;entryX=0.5;entryY=0;entryDx=0;entryDy=0;exitX=0;exitY=0.5;exitDx=0;exitDy=0;fontSize=14;" parent="1" source="5YQ8C8MWGox1qdXE-2Jn-39" target="5YQ8C8MWGox1qdXE-2Jn-36" edge="1">
          <mxGeometry relative="1" as="geometry">
            <mxPoint x="528.3200000000002" y="394.22" as="sourcePoint" />
            <mxPoint x="290" y="372" as="targetPoint" />
          </mxGeometry>
        </mxCell>
        <mxCell id="5YQ8C8MWGox1qdXE-2Jn-42" value="" style="endArrow=none;html=1;rounded=0;entryX=1;entryY=0;entryDx=0;entryDy=0;exitX=0;exitY=0.5;exitDx=0;exitDy=0;fontSize=14;" parent="1" source="5YQ8C8MWGox1qdXE-2Jn-36" target="FEdX-ZEhfG69FVSLUzDd-3" edge="1">
          <mxGeometry relative="1" as="geometry">
            <mxPoint x="838.3200000000002" y="419.22" as="sourcePoint" />
            <mxPoint x="600" y="397" as="targetPoint" />
          </mxGeometry>
        </mxCell>
        <mxCell id="5YQ8C8MWGox1qdXE-2Jn-43" value="&lt;span style=&quot;font-size: 14px;&quot;&gt;L_REG_No&lt;/span&gt;" style="ellipse;whiteSpace=wrap;html=1;align=center;fontSize=14;fontStyle=4" parent="1" vertex="1">
          <mxGeometry x="1020" y="240" width="100" height="40" as="geometry" />
        </mxCell>
        <mxCell id="5YQ8C8MWGox1qdXE-2Jn-44" value="" style="endArrow=none;html=1;rounded=0;entryX=1;entryY=0;entryDx=0;entryDy=0;exitX=1;exitY=1;exitDx=0;exitDy=0;fontSize=14;" parent="1" source="5YQ8C8MWGox1qdXE-2Jn-43" target="FEdX-ZEhfG69FVSLUzDd-3" edge="1">
          <mxGeometry relative="1" as="geometry">
            <mxPoint x="838.3200000000002" y="419.22" as="sourcePoint" />
            <mxPoint x="600" y="397" as="targetPoint" />
          </mxGeometry>
        </mxCell>
        <mxCell id="5YQ8C8MWGox1qdXE-2Jn-45" value="E-mail" style="ellipse;whiteSpace=wrap;html=1;align=center;fontSize=14;" parent="1" vertex="1">
          <mxGeometry x="1250" y="330" width="100" height="40" as="geometry" />
        </mxCell>
        <mxCell id="5YQ8C8MWGox1qdXE-2Jn-46" value="" style="endArrow=none;html=1;rounded=0;entryX=1;entryY=0;entryDx=0;entryDy=0;exitX=0;exitY=0.5;exitDx=0;exitDy=0;fontSize=14;" parent="1" source="5YQ8C8MWGox1qdXE-2Jn-45" target="FEdX-ZEhfG69FVSLUzDd-3" edge="1">
          <mxGeometry relative="1" as="geometry">
            <mxPoint x="838.3200000000002" y="419.22" as="sourcePoint" />
            <mxPoint x="600" y="397" as="targetPoint" />
          </mxGeometry>
        </mxCell>
        <mxCell id="5YQ8C8MWGox1qdXE-2Jn-47" value="NIC" style="ellipse;whiteSpace=wrap;html=1;align=center;fontSize=14;" parent="1" vertex="1">
          <mxGeometry x="1300" y="400" width="100" height="40" as="geometry" />
        </mxCell>
        <mxCell id="5YQ8C8MWGox1qdXE-2Jn-48" value="" style="endArrow=none;html=1;rounded=0;entryX=1;entryY=0;entryDx=0;entryDy=0;exitX=0;exitY=0.5;exitDx=0;exitDy=0;fontSize=14;" parent="1" source="5YQ8C8MWGox1qdXE-2Jn-47" target="FEdX-ZEhfG69FVSLUzDd-3" edge="1">
          <mxGeometry relative="1" as="geometry">
            <mxPoint x="838.3200000000002" y="419.22" as="sourcePoint" />
            <mxPoint x="600" y="397" as="targetPoint" />
          </mxGeometry>
        </mxCell>
        <mxCell id="5YQ8C8MWGox1qdXE-2Jn-49" value="Password" style="ellipse;whiteSpace=wrap;html=1;align=center;fillColor=none;fontSize=14;" parent="1" vertex="1">
          <mxGeometry x="1200" y="421" width="100" height="40" as="geometry" />
        </mxCell>
        <mxCell id="5YQ8C8MWGox1qdXE-2Jn-50" value="" style="endArrow=none;html=1;rounded=0;entryX=1;entryY=0;entryDx=0;entryDy=0;exitX=0;exitY=0.5;exitDx=0;exitDy=0;fontSize=14;" parent="1" source="5YQ8C8MWGox1qdXE-2Jn-49" target="FEdX-ZEhfG69FVSLUzDd-3" edge="1">
          <mxGeometry relative="1" as="geometry">
            <mxPoint x="838.3200000000002" y="419.22" as="sourcePoint" />
            <mxPoint x="600" y="397" as="targetPoint" />
          </mxGeometry>
        </mxCell>
        <mxCell id="5YQ8C8MWGox1qdXE-2Jn-51" value="" style="endArrow=none;html=1;rounded=0;entryX=1;entryY=0;entryDx=0;entryDy=0;exitX=0;exitY=0.5;exitDx=0;exitDy=0;fontSize=14;" parent="1" source="5YQ8C8MWGox1qdXE-2Jn-20" target="FEdX-ZEhfG69FVSLUzDd-4" edge="1">
          <mxGeometry relative="1" as="geometry">
            <mxPoint x="730" y="400" as="sourcePoint" />
            <mxPoint x="370" y="321" as="targetPoint" />
          </mxGeometry>
        </mxCell>
        <mxCell id="5YQ8C8MWGox1qdXE-2Jn-52" value="Mobile_No" style="ellipse;whiteSpace=wrap;html=1;align=center;fontSize=14;" parent="1" vertex="1">
          <mxGeometry x="1120" y="451" width="100" height="40" as="geometry" />
        </mxCell>
        <mxCell id="5YQ8C8MWGox1qdXE-2Jn-53" value="" style="endArrow=none;html=1;rounded=0;entryX=1;entryY=0;entryDx=0;entryDy=0;exitX=0.5;exitY=0;exitDx=0;exitDy=0;fontSize=14;" parent="1" source="5YQ8C8MWGox1qdXE-2Jn-52" target="FEdX-ZEhfG69FVSLUzDd-3" edge="1">
          <mxGeometry relative="1" as="geometry">
            <mxPoint x="838.3200000000002" y="419.22" as="sourcePoint" />
            <mxPoint x="600" y="397" as="targetPoint" />
          </mxGeometry>
        </mxCell>
        <mxCell id="5YQ8C8MWGox1qdXE-2Jn-56" value="&lt;span style=&quot;font-size: 14px;&quot;&gt;Payment_ID&lt;/span&gt;" style="ellipse;whiteSpace=wrap;html=1;align=center;fontSize=14;fontStyle=4" parent="1" vertex="1">
          <mxGeometry x="589" y="622" width="100" height="40" as="geometry" />
        </mxCell>
        <mxCell id="5YQ8C8MWGox1qdXE-2Jn-57" value="Amount" style="ellipse;whiteSpace=wrap;html=1;align=center;fontSize=14;" parent="1" vertex="1">
          <mxGeometry x="589" y="696" width="100" height="40" as="geometry" />
        </mxCell>
        <mxCell id="5YQ8C8MWGox1qdXE-2Jn-58" value="Receipt_No" style="ellipse;whiteSpace=wrap;html=1;align=center;fontSize=14;" parent="1" vertex="1">
          <mxGeometry x="679" y="736" width="100" height="40" as="geometry" />
        </mxCell>
        <mxCell id="5YQ8C8MWGox1qdXE-2Jn-59" value="Description" style="ellipse;whiteSpace=wrap;html=1;align=center;fontSize=14;" parent="1" vertex="1">
          <mxGeometry x="770" y="696" width="100" height="40" as="geometry" />
        </mxCell>
        <mxCell id="5YQ8C8MWGox1qdXE-2Jn-61" value="" style="endArrow=none;html=1;rounded=0;entryX=0;entryY=1;entryDx=0;entryDy=0;exitX=1;exitY=0.5;exitDx=0;exitDy=0;fontSize=14;" parent="1" source="5YQ8C8MWGox1qdXE-2Jn-56" target="5YQ8C8MWGox1qdXE-2Jn-7" edge="1">
          <mxGeometry relative="1" as="geometry">
            <mxPoint x="170" y="242" as="sourcePoint" />
            <mxPoint x="400" y="132" as="targetPoint" />
          </mxGeometry>
        </mxCell>
        <mxCell id="5YQ8C8MWGox1qdXE-2Jn-62" value="" style="endArrow=none;html=1;rounded=0;entryX=0;entryY=1;entryDx=0;entryDy=0;exitX=1;exitY=0;exitDx=0;exitDy=0;fontSize=14;" parent="1" source="5YQ8C8MWGox1qdXE-2Jn-57" target="5YQ8C8MWGox1qdXE-2Jn-7" edge="1">
          <mxGeometry relative="1" as="geometry">
            <mxPoint x="170" y="242" as="sourcePoint" />
            <mxPoint x="400" y="132" as="targetPoint" />
          </mxGeometry>
        </mxCell>
        <mxCell id="5YQ8C8MWGox1qdXE-2Jn-63" value="" style="endArrow=none;html=1;rounded=0;entryX=0;entryY=1;entryDx=0;entryDy=0;exitX=0.5;exitY=0;exitDx=0;exitDy=0;fontSize=14;" parent="1" source="5YQ8C8MWGox1qdXE-2Jn-58" target="5YQ8C8MWGox1qdXE-2Jn-7" edge="1">
          <mxGeometry relative="1" as="geometry">
            <mxPoint x="170" y="242" as="sourcePoint" />
            <mxPoint x="400" y="132" as="targetPoint" />
          </mxGeometry>
        </mxCell>
        <mxCell id="5YQ8C8MWGox1qdXE-2Jn-64" value="" style="endArrow=none;html=1;rounded=0;entryX=0;entryY=1;entryDx=0;entryDy=0;exitX=0;exitY=0;exitDx=0;exitDy=0;fontSize=14;" parent="1" source="5YQ8C8MWGox1qdXE-2Jn-59" target="5YQ8C8MWGox1qdXE-2Jn-7" edge="1">
          <mxGeometry relative="1" as="geometry">
            <mxPoint x="170" y="242" as="sourcePoint" />
            <mxPoint x="400" y="132" as="targetPoint" />
          </mxGeometry>
        </mxCell>
        <mxCell id="5YQ8C8MWGox1qdXE-2Jn-66" value="Name" style="ellipse;whiteSpace=wrap;html=1;align=center;fontSize=14;" parent="1" vertex="1">
          <mxGeometry x="1170" y="281" width="100" height="40" as="geometry" />
        </mxCell>
        <mxCell id="5YQ8C8MWGox1qdXE-2Jn-71" value="Name" style="ellipse;whiteSpace=wrap;html=1;align=center;fontSize=14;" parent="1" vertex="1">
          <mxGeometry x="1170" y="281" width="100" height="40" as="geometry" />
        </mxCell>
        <mxCell id="5YQ8C8MWGox1qdXE-2Jn-73" value="Name" style="ellipse;whiteSpace=wrap;html=1;align=center;fontSize=14;" parent="1" vertex="1">
          <mxGeometry x="1170" y="281" width="100" height="40" as="geometry" />
        </mxCell>
        <mxCell id="5YQ8C8MWGox1qdXE-2Jn-77" value="Name" style="ellipse;whiteSpace=wrap;html=1;align=center;fontSize=14;" parent="1" vertex="1">
          <mxGeometry x="1170" y="281" width="100" height="40" as="geometry" />
        </mxCell>
        <mxCell id="5YQ8C8MWGox1qdXE-2Jn-80" value="" style="endArrow=none;html=1;rounded=0;entryX=0;entryY=1;entryDx=0;entryDy=0;exitX=0.5;exitY=0;exitDx=0;exitDy=0;fontSize=14;" parent="1" source="5YQ8C8MWGox1qdXE-2Jn-81" target="5YQ8C8MWGox1qdXE-2Jn-84" edge="1">
          <mxGeometry relative="1" as="geometry">
            <mxPoint x="46" y="-209" as="sourcePoint" />
            <mxPoint x="-74" y="-179" as="targetPoint" />
          </mxGeometry>
        </mxCell>
        <mxCell id="5YQ8C8MWGox1qdXE-2Jn-81" value="Name" style="ellipse;whiteSpace=wrap;html=1;align=center;fontSize=14;" parent="1" vertex="1">
          <mxGeometry x="46" y="-185" width="100" height="40" as="geometry" />
        </mxCell>
        <mxCell id="5YQ8C8MWGox1qdXE-2Jn-82" value="First_Name" style="ellipse;whiteSpace=wrap;html=1;align=center;fontSize=14;" parent="1" vertex="1">
          <mxGeometry x="-15" y="-265" width="100" height="40" as="geometry" />
        </mxCell>
        <mxCell id="5YQ8C8MWGox1qdXE-2Jn-83" value="" style="endArrow=none;html=1;rounded=0;entryX=0.5;entryY=0;entryDx=0;entryDy=0;exitX=0.5;exitY=1;exitDx=0;exitDy=0;fontSize=14;" parent="1" source="5YQ8C8MWGox1qdXE-2Jn-82" target="5YQ8C8MWGox1qdXE-2Jn-81" edge="1">
          <mxGeometry relative="1" as="geometry">
            <mxPoint x="-595.6799999999998" y="-115.77999999999997" as="sourcePoint" />
            <mxPoint x="96" y="-229" as="targetPoint" />
          </mxGeometry>
        </mxCell>
        <mxCell id="5YQ8C8MWGox1qdXE-2Jn-84" value="Last_name" style="ellipse;whiteSpace=wrap;html=1;align=center;fontSize=14;" parent="1" vertex="1">
          <mxGeometry x="146" y="-265" width="100" height="40" as="geometry" />
        </mxCell>
        <mxCell id="5YQ8C8MWGox1qdXE-2Jn-85" value="" style="endArrow=none;html=1;rounded=0;entryX=0.5;entryY=0;entryDx=0;entryDy=0;exitX=0;exitY=1;exitDx=0;exitDy=0;fontSize=14;" parent="1" source="5YQ8C8MWGox1qdXE-2Jn-81" target="FEdX-ZEhfG69FVSLUzDd-1" edge="1">
          <mxGeometry relative="1" as="geometry">
            <mxPoint x="280" y="-244" as="sourcePoint" />
            <mxPoint x="160" y="-214" as="targetPoint" />
          </mxGeometry>
        </mxCell>
        <mxCell id="5YQ8C8MWGox1qdXE-2Jn-86" value="&lt;span style=&quot;font-size: 14px;&quot;&gt;NIC&lt;/span&gt;" style="ellipse;whiteSpace=wrap;html=1;align=center;fontSize=14;fontStyle=4" parent="1" vertex="1">
          <mxGeometry x="-63" y="-156" width="100" height="40" as="geometry" />
        </mxCell>
        <mxCell id="5YQ8C8MWGox1qdXE-2Jn-87" value="" style="endArrow=none;html=1;rounded=0;entryX=0.5;entryY=0;entryDx=0;entryDy=0;exitX=0.5;exitY=1;exitDx=0;exitDy=0;fontSize=14;" parent="1" source="5YQ8C8MWGox1qdXE-2Jn-86" target="FEdX-ZEhfG69FVSLUzDd-1" edge="1">
          <mxGeometry relative="1" as="geometry">
            <mxPoint x="280" y="-244" as="sourcePoint" />
            <mxPoint x="160" y="-214" as="targetPoint" />
          </mxGeometry>
        </mxCell>
        <mxCell id="5YQ8C8MWGox1qdXE-2Jn-90" value="" style="endArrow=none;html=1;rounded=0;entryX=0.5;entryY=0;entryDx=0;entryDy=0;exitX=0;exitY=1;exitDx=0;exitDy=0;fontSize=14;" parent="1" source="5YQ8C8MWGox1qdXE-2Jn-93" target="FEdX-ZEhfG69FVSLUzDd-1" edge="1">
          <mxGeometry relative="1" as="geometry">
            <mxPoint x="224.64466094067257" y="-215.85786437626894" as="sourcePoint" />
            <mxPoint x="160" y="-214" as="targetPoint" />
          </mxGeometry>
        </mxCell>
        <mxCell id="5YQ8C8MWGox1qdXE-2Jn-93" value="Password" style="ellipse;whiteSpace=wrap;html=1;align=center;fontSize=14;" parent="1" vertex="1">
          <mxGeometry x="270" y="-131" width="100" height="40" as="geometry" />
        </mxCell>
        <mxCell id="5YQ8C8MWGox1qdXE-2Jn-96" value="" style="shape=link;html=1;rounded=0;exitX=1;exitY=0.5;exitDx=0;exitDy=0;entryX=0;entryY=0.5;entryDx=0;entryDy=0;fontSize=14;" parent="1" source="FEdX-ZEhfG69FVSLUzDd-7" target="FEdX-ZEhfG69FVSLUzDd-2" edge="1">
          <mxGeometry relative="1" as="geometry">
            <mxPoint x="540" y="150" as="sourcePoint" />
            <mxPoint x="700" y="150" as="targetPoint" />
          </mxGeometry>
        </mxCell>
        <mxCell id="5YQ8C8MWGox1qdXE-2Jn-97" value="1" style="resizable=0;html=1;whiteSpace=wrap;align=right;verticalAlign=bottom;fontSize=14;" parent="5YQ8C8MWGox1qdXE-2Jn-96" connectable="0" vertex="1">
          <mxGeometry x="1" relative="1" as="geometry" />
        </mxCell>
        <mxCell id="H47zb7GgkbiysLEzrbTU-1" value="E-mail" style="ellipse;whiteSpace=wrap;html=1;align=center;fontSize=14;" parent="1" vertex="1">
          <mxGeometry x="176" y="-165" width="100" height="40" as="geometry" />
        </mxCell>
        <mxCell id="H47zb7GgkbiysLEzrbTU-2" value="" style="endArrow=none;html=1;rounded=0;entryX=0.5;entryY=0;entryDx=0;entryDy=0;exitX=0;exitY=0.5;exitDx=0;exitDy=0;fontSize=14;" parent="1" source="H47zb7GgkbiysLEzrbTU-1" target="FEdX-ZEhfG69FVSLUzDd-1" edge="1">
          <mxGeometry relative="1" as="geometry">
            <mxPoint x="280" y="-244" as="sourcePoint" />
            <mxPoint x="160" y="-214" as="targetPoint" />
          </mxGeometry>
        </mxCell>
        <mxCell id="H47zb7GgkbiysLEzrbTU-3" value="Description" style="ellipse;whiteSpace=wrap;html=1;align=center;fontSize=14;" parent="1" vertex="1">
          <mxGeometry x="470" width="100" height="40" as="geometry" />
        </mxCell>
        <mxCell id="H47zb7GgkbiysLEzrbTU-4" value="&lt;span style=&quot;font-size: 14px;&quot;&gt;Certificate_No&lt;br style=&quot;font-size: 14px;&quot;&gt;&lt;/span&gt;" style="ellipse;whiteSpace=wrap;html=1;align=center;fontSize=14;fontStyle=4" parent="1" vertex="1">
          <mxGeometry x="350" y="-16" width="100" height="40" as="geometry" />
        </mxCell>
        <mxCell id="H47zb7GgkbiysLEzrbTU-5" value="Date" style="ellipse;whiteSpace=wrap;html=1;align=center;fontSize=14;" parent="1" vertex="1">
          <mxGeometry x="600" y="150" width="100" height="40" as="geometry" />
        </mxCell>
        <mxCell id="H47zb7GgkbiysLEzrbTU-6" value="" style="endArrow=none;html=1;rounded=0;entryX=0;entryY=0.5;entryDx=0;entryDy=0;exitX=1;exitY=0.5;exitDx=0;exitDy=0;fontSize=14;" parent="1" source="5YQ8C8MWGox1qdXE-2Jn-15" target="H47zb7GgkbiysLEzrbTU-5" edge="1">
          <mxGeometry relative="1" as="geometry">
            <mxPoint x="80" y="274" as="sourcePoint" />
            <mxPoint x="310" y="164" as="targetPoint" />
          </mxGeometry>
        </mxCell>
        <mxCell id="H47zb7GgkbiysLEzrbTU-7" value="" style="endArrow=none;html=1;rounded=0;entryX=0.5;entryY=0;entryDx=0;entryDy=0;exitX=0.5;exitY=1;exitDx=0;exitDy=0;fontSize=14;" parent="1" source="H47zb7GgkbiysLEzrbTU-4" target="5YQ8C8MWGox1qdXE-2Jn-14" edge="1">
          <mxGeometry relative="1" as="geometry">
            <mxPoint x="80" y="274" as="sourcePoint" />
            <mxPoint x="310" y="164" as="targetPoint" />
          </mxGeometry>
        </mxCell>
        <mxCell id="H47zb7GgkbiysLEzrbTU-8" value="" style="endArrow=none;html=1;rounded=0;entryX=0.5;entryY=0;entryDx=0;entryDy=0;fontSize=14;" parent="1" source="H47zb7GgkbiysLEzrbTU-3" target="5YQ8C8MWGox1qdXE-2Jn-14" edge="1">
          <mxGeometry relative="1" as="geometry">
            <mxPoint x="80" y="274" as="sourcePoint" />
            <mxPoint x="310" y="164" as="targetPoint" />
          </mxGeometry>
        </mxCell>
        <mxCell id="H47zb7GgkbiysLEzrbTU-10" value="&lt;span style=&quot;font-size: 14px;&quot;&gt;E_No&lt;br style=&quot;font-size: 14px;&quot;&gt;&lt;/span&gt;" style="ellipse;whiteSpace=wrap;html=1;align=center;fontSize=14;fontStyle=4" parent="1" vertex="1">
          <mxGeometry x="-10" y="84" width="100" height="40" as="geometry" />
        </mxCell>
        <mxCell id="H47zb7GgkbiysLEzrbTU-11" value="Name" style="ellipse;whiteSpace=wrap;html=1;align=center;fontSize=14;" parent="1" vertex="1">
          <mxGeometry x="49" y="24" width="100" height="40" as="geometry" />
        </mxCell>
        <mxCell id="H47zb7GgkbiysLEzrbTU-12" value="Module" style="ellipse;whiteSpace=wrap;html=1;align=center;fontSize=14;" parent="1" vertex="1">
          <mxGeometry x="159" y="24" width="100" height="40" as="geometry" />
        </mxCell>
        <mxCell id="H47zb7GgkbiysLEzrbTU-13" value="Credit" style="ellipse;whiteSpace=wrap;html=1;align=center;fontSize=14;" parent="1" vertex="1">
          <mxGeometry x="-80" y="892" width="100" height="40" as="geometry" />
        </mxCell>
        <mxCell id="H47zb7GgkbiysLEzrbTU-14" value="" style="endArrow=none;html=1;rounded=0;exitX=0.25;exitY=0;exitDx=0;exitDy=0;entryX=1;entryY=0.5;entryDx=0;entryDy=0;fontSize=14;" parent="1" source="p-VBvKtd0xTwOiZM_nHM-11" target="H47zb7GgkbiysLEzrbTU-10" edge="1">
          <mxGeometry relative="1" as="geometry">
            <mxPoint x="80" y="274" as="sourcePoint" />
            <mxPoint x="100" y="164" as="targetPoint" />
          </mxGeometry>
        </mxCell>
        <mxCell id="H47zb7GgkbiysLEzrbTU-15" value="" style="endArrow=none;html=1;rounded=0;exitX=0.25;exitY=0;exitDx=0;exitDy=0;entryX=0.5;entryY=1;entryDx=0;entryDy=0;fontSize=14;" parent="1" source="p-VBvKtd0xTwOiZM_nHM-11" target="H47zb7GgkbiysLEzrbTU-11" edge="1">
          <mxGeometry relative="1" as="geometry">
            <mxPoint x="80" y="274" as="sourcePoint" />
            <mxPoint x="64" y="58" as="targetPoint" />
          </mxGeometry>
        </mxCell>
        <mxCell id="H47zb7GgkbiysLEzrbTU-17" value="" style="endArrow=none;html=1;rounded=0;exitX=0.25;exitY=0;exitDx=0;exitDy=0;entryX=0.5;entryY=1;entryDx=0;entryDy=0;fontSize=14;" parent="1" source="p-VBvKtd0xTwOiZM_nHM-11" target="H47zb7GgkbiysLEzrbTU-12" edge="1">
          <mxGeometry relative="1" as="geometry">
            <mxPoint x="80" y="274" as="sourcePoint" />
            <mxPoint x="100" y="164" as="targetPoint" />
          </mxGeometry>
        </mxCell>
        <mxCell id="H47zb7GgkbiysLEzrbTU-19" value="&lt;span style=&quot;font-size: 14px;&quot;&gt;M_ID&lt;br style=&quot;font-size: 14px;&quot;&gt;&lt;/span&gt;" style="ellipse;whiteSpace=wrap;html=1;align=center;fontSize=14;fontStyle=4" parent="1" vertex="1">
          <mxGeometry x="-60" y="766" width="100" height="40" as="geometry" />
        </mxCell>
        <mxCell id="H47zb7GgkbiysLEzrbTU-20" value="Name" style="ellipse;whiteSpace=wrap;html=1;align=center;fontSize=14;" parent="1" vertex="1">
          <mxGeometry x="-90" y="833" width="100" height="40" as="geometry" />
        </mxCell>
        <mxCell id="H47zb7GgkbiysLEzrbTU-21" value="" style="endArrow=none;html=1;rounded=0;exitX=0;exitY=0.25;exitDx=0;exitDy=0;entryX=1;entryY=0.5;entryDx=0;entryDy=0;fontSize=14;" parent="1" source="p-VBvKtd0xTwOiZM_nHM-4" target="H47zb7GgkbiysLEzrbTU-19" edge="1">
          <mxGeometry relative="1" as="geometry">
            <mxPoint x="90" y="913" as="sourcePoint" />
            <mxPoint x="90" y="843" as="targetPoint" />
          </mxGeometry>
        </mxCell>
        <mxCell id="H47zb7GgkbiysLEzrbTU-22" value="" style="endArrow=none;html=1;rounded=0;exitX=0;exitY=0.25;exitDx=0;exitDy=0;entryX=1;entryY=0.5;entryDx=0;entryDy=0;fontSize=14;" parent="1" source="p-VBvKtd0xTwOiZM_nHM-4" target="H47zb7GgkbiysLEzrbTU-20" edge="1">
          <mxGeometry relative="1" as="geometry">
            <mxPoint x="90" y="913" as="sourcePoint" />
            <mxPoint x="90" y="843" as="targetPoint" />
          </mxGeometry>
        </mxCell>
        <mxCell id="H47zb7GgkbiysLEzrbTU-23" value="" style="endArrow=none;html=1;rounded=0;exitX=0;exitY=0.25;exitDx=0;exitDy=0;entryX=1;entryY=0.5;entryDx=0;entryDy=0;fontSize=14;" parent="1" source="p-VBvKtd0xTwOiZM_nHM-4" target="H47zb7GgkbiysLEzrbTU-13" edge="1">
          <mxGeometry relative="1" as="geometry">
            <mxPoint x="90" y="913" as="sourcePoint" />
            <mxPoint x="90" y="843" as="targetPoint" />
          </mxGeometry>
        </mxCell>
        <mxCell id="H47zb7GgkbiysLEzrbTU-24" value="Duration" style="ellipse;whiteSpace=wrap;html=1;align=center;fontSize=14;" parent="1" vertex="1">
          <mxGeometry x="269" y="30" width="100" height="40" as="geometry" />
        </mxCell>
        <mxCell id="H47zb7GgkbiysLEzrbTU-25" value="" style="endArrow=none;html=1;rounded=0;exitX=0.25;exitY=0;exitDx=0;exitDy=0;entryX=0;entryY=1;entryDx=0;entryDy=0;fontSize=14;" parent="1" source="p-VBvKtd0xTwOiZM_nHM-11" target="H47zb7GgkbiysLEzrbTU-24" edge="1">
          <mxGeometry relative="1" as="geometry">
            <mxPoint x="80" y="274" as="sourcePoint" />
            <mxPoint x="100" y="164" as="targetPoint" />
          </mxGeometry>
        </mxCell>
        <mxCell id="H47zb7GgkbiysLEzrbTU-26" value="Name" style="ellipse;whiteSpace=wrap;html=1;align=center;fontSize=14;" parent="1" vertex="1">
          <mxGeometry x="252.5" y="459" width="100" height="38" as="geometry" />
        </mxCell>
        <mxCell id="H47zb7GgkbiysLEzrbTU-27" value="&lt;span style=&quot;font-size: 14px;&quot;&gt;C_ID&lt;/span&gt;" style="ellipse;whiteSpace=wrap;html=1;align=center;fontSize=14;fontStyle=4" parent="1" vertex="1">
          <mxGeometry x="169" y="411" width="100" height="40" as="geometry" />
        </mxCell>
        <mxCell id="H47zb7GgkbiysLEzrbTU-28" value="Duration" style="ellipse;whiteSpace=wrap;html=1;align=center;fontSize=14;" parent="1" vertex="1">
          <mxGeometry x="337.5" y="421" width="100" height="40" as="geometry" />
        </mxCell>
        <mxCell id="H47zb7GgkbiysLEzrbTU-29" value="Lecturer" style="ellipse;shape=doubleEllipse;margin=3;whiteSpace=wrap;html=1;align=center;fontSize=14;" parent="1" vertex="1">
          <mxGeometry x="-37" y="961" width="100" height="40" as="geometry" />
        </mxCell>
        <mxCell id="H47zb7GgkbiysLEzrbTU-34" value="" style="endArrow=none;html=1;rounded=0;exitX=0;exitY=0.25;exitDx=0;exitDy=0;entryX=1;entryY=0;entryDx=0;entryDy=0;fontSize=14;" parent="1" source="p-VBvKtd0xTwOiZM_nHM-4" target="H47zb7GgkbiysLEzrbTU-29" edge="1">
          <mxGeometry relative="1" as="geometry">
            <mxPoint x="90" y="913" as="sourcePoint" />
            <mxPoint x="90" y="843" as="targetPoint" />
          </mxGeometry>
        </mxCell>
        <mxCell id="H47zb7GgkbiysLEzrbTU-35" value="" style="endArrow=none;html=1;rounded=0;entryX=0.5;entryY=0;entryDx=0;entryDy=0;exitX=0.75;exitY=1;exitDx=0;exitDy=0;fontSize=14;" parent="1" source="FEdX-ZEhfG69FVSLUzDd-6" target="H47zb7GgkbiysLEzrbTU-27" edge="1">
          <mxGeometry relative="1" as="geometry">
            <mxPoint x="450" y="391" as="sourcePoint" />
            <mxPoint x="370" y="331" as="targetPoint" />
          </mxGeometry>
        </mxCell>
        <mxCell id="H47zb7GgkbiysLEzrbTU-36" value="" style="endArrow=none;html=1;rounded=0;entryX=1;entryY=0;entryDx=0;entryDy=0;exitX=0.75;exitY=1;exitDx=0;exitDy=0;fontSize=14;" parent="1" source="FEdX-ZEhfG69FVSLUzDd-6" target="H47zb7GgkbiysLEzrbTU-26" edge="1">
          <mxGeometry relative="1" as="geometry">
            <mxPoint x="450" y="391" as="sourcePoint" />
            <mxPoint x="370" y="331" as="targetPoint" />
          </mxGeometry>
        </mxCell>
        <mxCell id="H47zb7GgkbiysLEzrbTU-37" value="" style="endArrow=none;html=1;rounded=0;entryX=0.5;entryY=0;entryDx=0;entryDy=0;exitX=0.75;exitY=1;exitDx=0;exitDy=0;fontSize=14;" parent="1" source="FEdX-ZEhfG69FVSLUzDd-6" target="H47zb7GgkbiysLEzrbTU-28" edge="1">
          <mxGeometry relative="1" as="geometry">
            <mxPoint x="450" y="391" as="sourcePoint" />
            <mxPoint x="370" y="331" as="targetPoint" />
          </mxGeometry>
        </mxCell>
        <mxCell id="H47zb7GgkbiysLEzrbTU-38" value="Add" style="shape=rhombus;perimeter=rhombusPerimeter;whiteSpace=wrap;html=1;align=center;fontSize=14;" parent="1" vertex="1">
          <mxGeometry x="730" y="790" width="120" height="60" as="geometry" />
        </mxCell>
        <mxCell id="H47zb7GgkbiysLEzrbTU-39" value="" style="endArrow=none;html=1;rounded=0;entryX=0.25;entryY=1;entryDx=0;entryDy=0;exitX=1;exitY=0.5;exitDx=0;exitDy=0;fontSize=14;" parent="1" source="H47zb7GgkbiysLEzrbTU-38" target="FEdX-ZEhfG69FVSLUzDd-3" edge="1">
          <mxGeometry relative="1" as="geometry">
            <mxPoint x="1100" y="770" as="sourcePoint" />
            <mxPoint x="370" y="402" as="targetPoint" />
          </mxGeometry>
        </mxCell>
        <mxCell id="H47zb7GgkbiysLEzrbTU-72" value="1" style="edgeLabel;html=1;align=center;verticalAlign=middle;resizable=0;points=[];" parent="H47zb7GgkbiysLEzrbTU-39" vertex="1" connectable="0">
          <mxGeometry x="0.9087" y="2" relative="1" as="geometry">
            <mxPoint x="-3" y="-3" as="offset" />
          </mxGeometry>
        </mxCell>
        <mxCell id="H47zb7GgkbiysLEzrbTU-40" value="" style="endArrow=none;html=1;rounded=0;exitX=1;exitY=1;exitDx=0;exitDy=0;entryX=0;entryY=0.5;entryDx=0;entryDy=0;fontSize=14;" parent="1" source="p-VBvKtd0xTwOiZM_nHM-18" edge="1">
          <mxGeometry relative="1" as="geometry">
            <mxPoint x="534" y="707" as="sourcePoint" />
            <mxPoint x="734" y="820" as="targetPoint" />
          </mxGeometry>
        </mxCell>
        <mxCell id="H47zb7GgkbiysLEzrbTU-41" value="Teach" style="shape=rhombus;perimeter=rhombusPerimeter;whiteSpace=wrap;html=1;align=center;fontSize=14;" parent="1" vertex="1">
          <mxGeometry x="790" y="840" width="120" height="60" as="geometry" />
        </mxCell>
        <mxCell id="H47zb7GgkbiysLEzrbTU-42" value="" style="endArrow=none;html=1;rounded=0;entryX=0.5;entryY=1;entryDx=0;entryDy=0;exitX=1;exitY=0.5;exitDx=0;exitDy=0;fontSize=14;" parent="1" source="H47zb7GgkbiysLEzrbTU-41" target="FEdX-ZEhfG69FVSLUzDd-3" edge="1">
          <mxGeometry relative="1" as="geometry">
            <mxPoint x="1100" y="770" as="sourcePoint" />
            <mxPoint x="370" y="402" as="targetPoint" />
          </mxGeometry>
        </mxCell>
        <mxCell id="H47zb7GgkbiysLEzrbTU-73" value="M" style="edgeLabel;html=1;align=center;verticalAlign=middle;resizable=0;points=[];" parent="H47zb7GgkbiysLEzrbTU-42" vertex="1" connectable="0">
          <mxGeometry x="0.9069" y="4" relative="1" as="geometry">
            <mxPoint x="-3" as="offset" />
          </mxGeometry>
        </mxCell>
        <mxCell id="H47zb7GgkbiysLEzrbTU-43" value="" style="endArrow=none;html=1;rounded=0;exitX=1;exitY=0.5;exitDx=0;exitDy=0;entryX=0;entryY=0.5;entryDx=0;entryDy=0;fontSize=14;" parent="1" source="p-VBvKtd0xTwOiZM_nHM-4" target="H47zb7GgkbiysLEzrbTU-41" edge="1">
          <mxGeometry relative="1" as="geometry">
            <mxPoint x="140" y="635" as="sourcePoint" />
            <mxPoint x="313" y="1065" as="targetPoint" />
          </mxGeometry>
        </mxCell>
        <mxCell id="H47zb7GgkbiysLEzrbTU-74" value="N" style="edgeLabel;html=1;align=center;verticalAlign=middle;resizable=0;points=[];" parent="H47zb7GgkbiysLEzrbTU-43" vertex="1" connectable="0">
          <mxGeometry x="-0.9457" y="2" relative="1" as="geometry">
            <mxPoint y="-4" as="offset" />
          </mxGeometry>
        </mxCell>
        <mxCell id="H47zb7GgkbiysLEzrbTU-44" value="&lt;span style=&quot;font-size: 14px;&quot;&gt;Lec_No&lt;/span&gt;" style="ellipse;whiteSpace=wrap;html=1;align=center;fontSize=14;fontStyle=4" parent="1" vertex="1">
          <mxGeometry x="246" y="656" width="100" height="40" as="geometry" />
        </mxCell>
        <mxCell id="H47zb7GgkbiysLEzrbTU-45" value="Duration" style="ellipse;whiteSpace=wrap;html=1;align=center;fontSize=14;" parent="1" vertex="1">
          <mxGeometry x="250" y="540" width="100" height="40" as="geometry" />
        </mxCell>
        <mxCell id="H47zb7GgkbiysLEzrbTU-46" value="Name" style="ellipse;whiteSpace=wrap;html=1;align=center;fontSize=14;" parent="1" vertex="1">
          <mxGeometry x="210" y="599" width="100" height="38" as="geometry" />
        </mxCell>
        <mxCell id="H47zb7GgkbiysLEzrbTU-47" value="Type" style="ellipse;whiteSpace=wrap;html=1;align=center;fontSize=14;" parent="1" vertex="1">
          <mxGeometry x="365" y="540" width="100" height="38" as="geometry" />
        </mxCell>
        <mxCell id="H47zb7GgkbiysLEzrbTU-50" value="" style="endArrow=none;html=1;rounded=0;entryX=0;entryY=0;entryDx=0;entryDy=0;exitX=1;exitY=0.5;exitDx=0;exitDy=0;fontSize=14;" parent="1" source="H47zb7GgkbiysLEzrbTU-46" target="p-VBvKtd0xTwOiZM_nHM-18" edge="1">
          <mxGeometry relative="1" as="geometry">
            <mxPoint x="261.5" y="556" as="sourcePoint" />
            <mxPoint x="301.5" y="186" as="targetPoint" />
          </mxGeometry>
        </mxCell>
        <mxCell id="H47zb7GgkbiysLEzrbTU-51" value="" style="endArrow=none;html=1;rounded=0;entryX=0;entryY=0;entryDx=0;entryDy=0;exitX=1;exitY=0.5;exitDx=0;exitDy=0;fontSize=14;" parent="1" source="H47zb7GgkbiysLEzrbTU-44" target="p-VBvKtd0xTwOiZM_nHM-18" edge="1">
          <mxGeometry relative="1" as="geometry">
            <mxPoint x="261.5" y="556" as="sourcePoint" />
            <mxPoint x="301.5" y="186" as="targetPoint" />
          </mxGeometry>
        </mxCell>
        <mxCell id="H47zb7GgkbiysLEzrbTU-52" value="" style="endArrow=none;html=1;rounded=0;entryX=0;entryY=0;entryDx=0;entryDy=0;exitX=1;exitY=1;exitDx=0;exitDy=0;fontSize=14;" parent="1" source="H47zb7GgkbiysLEzrbTU-45" target="p-VBvKtd0xTwOiZM_nHM-18" edge="1">
          <mxGeometry relative="1" as="geometry">
            <mxPoint x="261.5" y="556" as="sourcePoint" />
            <mxPoint x="301.5" y="186" as="targetPoint" />
          </mxGeometry>
        </mxCell>
        <mxCell id="H47zb7GgkbiysLEzrbTU-53" value="" style="endArrow=none;html=1;rounded=0;entryX=0;entryY=0;entryDx=0;entryDy=0;exitX=0.5;exitY=1;exitDx=0;exitDy=0;fontSize=14;" parent="1" source="H47zb7GgkbiysLEzrbTU-47" target="p-VBvKtd0xTwOiZM_nHM-18" edge="1">
          <mxGeometry relative="1" as="geometry">
            <mxPoint x="261.5" y="556" as="sourcePoint" />
            <mxPoint x="301.5" y="186" as="targetPoint" />
          </mxGeometry>
        </mxCell>
        <mxCell id="H47zb7GgkbiysLEzrbTU-58" value="1" style="text;html=1;align=center;verticalAlign=middle;resizable=0;points=[];autosize=1;strokeColor=none;fillColor=none;" parent="1" vertex="1">
          <mxGeometry x="225" y="308" width="30" height="30" as="geometry" />
        </mxCell>
        <mxCell id="H47zb7GgkbiysLEzrbTU-59" value="N" style="text;html=1;align=center;verticalAlign=middle;resizable=0;points=[];autosize=1;strokeColor=none;fillColor=none;" parent="1" vertex="1">
          <mxGeometry x="395" y="308" width="30" height="30" as="geometry" />
        </mxCell>
        <mxCell id="H47zb7GgkbiysLEzrbTU-60" value="N" style="text;html=1;align=center;verticalAlign=middle;resizable=0;points=[];autosize=1;strokeColor=none;fillColor=none;" parent="1" vertex="1">
          <mxGeometry x="290" y="165" width="30" height="30" as="geometry" />
        </mxCell>
        <mxCell id="H47zb7GgkbiysLEzrbTU-63" value="N" style="text;html=1;align=center;verticalAlign=middle;resizable=0;points=[];autosize=1;strokeColor=none;fillColor=none;" parent="1" vertex="1">
          <mxGeometry x="507" y="121" width="30" height="30" as="geometry" />
        </mxCell>
        <mxCell id="H47zb7GgkbiysLEzrbTU-71" value="N" style="text;html=1;align=center;verticalAlign=middle;resizable=0;points=[];autosize=1;strokeColor=none;fillColor=none;" parent="1" vertex="1">
          <mxGeometry x="525" y="698" width="30" height="30" as="geometry" />
        </mxCell>
      </root>
    </mxGraphModel>
  </diagram>
</mxfile>
